<svg width="281" height="31" viewBox="0 0 281 31" xmlns="http://www.w3.org/2000/svg"><title>Group</title><g fill="none" fill-rule="evenodd"><path d="M10.59 31h3.48V10.3h-3.48v8.43H3.81V10.3H.33V31h3.48v-9.42h6.78V31zM23.07 12.94h8.58l.39-2.64H19.59V31h12.63v-2.64h-9.15v-6.57h7.5v-2.61h-7.5v-6.24zM46.59 10.3v10.02c-.9.87-2.16 1.56-4.05 1.56-2.4 0-3.63-1.17-3.63-3.87V10.3h-3.48v7.89c0 4.08 2.4 6.48 6.18 6.48 2.01 0 3.42-.54 4.98-1.68V31h3.48V10.3h-3.48zM59.07 12.94h8.58l.39-2.64H55.59V31h12.63v-2.64h-9.15v-6.57h7.5v-2.61h-7.5v-6.24zM80.91 13.12h5.97l.36-2.82H71.19v2.82h6.24V31h3.48V13.12zM101.59 31h3.48V10.3h-3.48v8.43h-6.78V10.3h-3.48V31h3.48v-9.42h6.78V31zM281 10h-12.93v20.7h3.48V12.88h9.09L281 10zM264.11 16.51c0-4.41-3.09-6.51-8.31-6.51h-5.73v20.7h3.45v-7.38h2.52c4.74 0 8.07-1.98 8.07-6.81zm-3.63 0c0 3.15-1.8 4.17-4.41 4.17h-2.55v-8.07h2.52c2.67 0 4.44 1.08 4.44 3.9zM236.55 12.64h8.58l.39-2.64h-12.45v20.7h12.63v-2.64h-9.15v-6.57h7.5v-2.61h-7.5v-6.24zM228.2 24.73c0-3.42-2.49-4.62-4.74-5.01 1.98-.45 3.84-1.89 3.84-4.47 0-4.05-3.69-5.25-7.56-5.25h-5.67v20.7h6.06c4.08 0 8.07-1.35 8.07-5.97zm-4.44-9.21c0 2.16-1.2 3.06-3.51 3.06h-2.7v-5.97h2.49c2.37 0 3.72.81 3.72 2.91zm.81 9.21c0 2.76-2.22 3.27-4.2 3.27h-2.82v-6.81h2.94c2.31 0 4.08.75 4.08 3.54zM203.79 12.82h5.97l.36-2.82h-16.05v2.82h6.24V30.7h3.48V12.82zM182.55 12.64h8.58l.39-2.64h-12.45v20.7h12.63v-2.64h-9.15v-6.57h7.5v-2.61h-7.5v-6.24zM170.23 10v10.02c-.9.87-2.16 1.56-4.05 1.56-2.4 0-3.63-1.17-3.63-3.87V10h-3.48v7.89c0 4.08 2.4 6.48 6.18 6.48 2.01 0 3.42-.54 4.98-1.68v8.01h3.48V10h-3.48zM133 30.7h4.23l6.75-17.52c-.3 2.13-.57 4.92-.57 8.4v9.12h3.33V10h-4.14l-6.87 17.64c.36-2.37.6-4.59.6-8.49V10H133v20.7zM114.18 10H111v20.7h4.5c4.65 0 7.47-2.16 7.47-6.81 0-4.26-2.58-6.51-7.53-6.51h-1.26V10zm13.2 0h-3.18v20.7h3.18V10zm-11.61 9.87c2.58 0 3.9 1.35 3.9 4.05 0 3.12-1.44 4.2-3.96 4.2h-1.53v-8.25h1.59z" fill="#002B36"/><circle fill="#93A1A1" cx="7" cy="3" r="3"/><circle fill="#586E75" cx="53" cy="3" r="3"/><circle fill="#93A1A1" cx="113" cy="3" r="3"/><ellipse fill="#93A1A1" cx="238" cy="3" rx="3" ry="3"/><ellipse fill="#93A1A1" cx="220" cy="3" rx="3" ry="3"/><circle fill="#93A1A1" cx="62" cy="3" r="3"/><circle fill="#93A1A1" cx="122" cy="3" r="3"/><ellipse fill="#93A1A1" cx="247" cy="3" rx="3" ry="3"/><ellipse fill="#93A1A1" cx="229" cy="3" rx="3" ry="3"/><circle fill="#586E75" cx="71" cy="3" r="3"/><circle fill="#93A1A1" cx="131" cy="3" r="3"/><ellipse fill="#93A1A1" cx="256" cy="3" rx="3" ry="3"/><circle fill="#93A1A1" cx="149" cy="3" r="3"/><ellipse fill="#93A1A1" cx="274" cy="3" rx="3" ry="3"/><circle fill="#586E75" cx="140" cy="3" r="3"/><ellipse fill="#93A1A1" cx="265" cy="3" rx="3" ry="3"/></g></svg>